<svg width="299" height="110" viewBox="0 0 299 110" fill="none" xmlns="http://www.w3.org/2000/svg">
<path d="M16.61 109.9C11.1633 109.9 7.17333 108.697 4.64 106.29C2.10667 103.883 0.839999 101.413 0.839999 98.88C0.839999 96.98 1.47333 95.5867 2.74 94.7C3.88 93.6867 5.27333 93.18 6.92 93.18C8.56667 93.18 9.70667 93.56 10.34 94.32C10.9733 94.9533 11.29 95.7133 11.29 96.6C11.29 97.8667 10.7833 98.7533 9.77 99.26C8.75667 99.7667 7.74333 100.02 6.73 100.02C5.84333 100.02 5.21 99.9567 4.83 99.83C4.32333 99.7033 3.94333 99.5767 3.69 99.45C3.69 101.73 4.83 103.757 7.11 105.53C9.26333 107.177 12.1767 108 15.85 108C21.0433 108 26.3 106.29 31.62 102.87C36.94 99.3233 42.07 95.0167 47.01 89.95C52.0767 84.7567 56.89 79.5 61.45 74.18C66.01 68.86 70.1267 64.3633 73.8 60.69C78.9933 55.4967 84.3767 50.05 89.95 44.35C95.5233 38.65 101.35 33.2033 107.43 28.01C113.637 22.8167 120.097 18.3833 126.81 14.71C133.523 10.91 140.553 8.43999 147.9 7.29999C149.673 7.04666 150.687 7.17333 150.94 7.68C151.32 8.06 151.003 8.37666 149.99 8.63C143.023 9.89667 136.5 12.24 130.42 15.66C124.467 18.9533 118.577 23.3233 112.75 28.77C107.05 34.09 101.097 40.4867 94.89 47.96C88.81 55.3067 82.16 63.6667 74.94 73.04C71.7733 77.22 68.1 81.4633 63.92 85.77C59.74 90.0767 55.1167 94.0667 50.05 97.74C44.9833 101.413 39.6633 104.39 34.09 106.67C28.5167 108.823 22.69 109.9 16.61 109.9ZM77.41 109.9C67.7833 109.9 62.97 107.24 62.97 101.92C62.97 98.7533 64.2367 95.65 66.77 92.61C69.3033 89.4433 72.5333 86.53 76.46 83.87C80.5133 81.21 84.6933 79.12 89 77.6C93.3067 76.08 97.2333 75.3833 100.78 75.51C101.54 75.51 102.047 75.8267 102.3 76.46C102.553 76.9667 102.047 77.22 100.78 77.22C97.4867 77.22 93.8133 77.98 89.76 79.5C85.7067 80.8933 81.78 82.7933 77.98 85.2C74.3067 87.6067 71.2667 90.2667 68.86 93.18C66.4533 96.0933 65.25 99.0067 65.25 101.92C65.25 104.073 66.2 105.593 68.1 106.48C70 107.367 72.28 107.81 74.94 107.81C78.74 107.81 82.6033 106.797 86.53 104.77C90.4567 102.743 94.0667 99.9567 97.36 96.41C100.78 92.8633 103.503 88.81 105.53 84.25C107.557 79.69 108.57 74.94 108.57 70C108.57 67.0867 107.747 64.7433 106.1 62.97C104.58 61.1967 102.363 60.31 99.45 60.31C96.5367 60.31 94.1933 60.5633 92.42 61.07C90.6467 61.5767 89.76 62.1467 89.76 62.78C89.76 63.4133 90.0767 63.8567 90.71 64.11C91.47 64.3633 92.8 64.49 94.7 64.49C98.3733 64.49 102.3 63.4767 106.48 61.45C110.787 59.4233 114.84 56.6367 118.64 53.09C122.567 49.5433 125.733 45.5533 128.14 41.12C130.673 36.6867 131.94 32.0633 131.94 27.25C131.94 24.0833 131.053 20.9167 129.28 17.75C127.507 14.4567 124.277 11.7333 119.59 9.58C114.903 7.3 108.127 6.16 99.26 6.16C91.9133 6.16 84.82 7.42666 77.98 9.95999C71.2667 12.3667 64.9967 15.5333 59.17 19.46C53.47 23.3867 48.4033 27.5667 43.97 32C39.6633 36.4333 36.3067 40.74 33.9 44.92C31.4933 48.9733 30.29 52.3933 30.29 55.18C30.29 57.3333 31.05 59.4233 32.57 61.45C34.09 63.35 37.0033 64.3 41.31 64.3C45.49 64.3 50.05 63.0333 54.99 60.5C60.0567 57.84 64.87 54.3567 69.43 50.05C74.1167 45.6167 78.0433 40.6133 81.21 35.04C84.5033 29.34 86.4667 23.45 87.1 17.37C87.3533 15.85 87.7333 15.1533 88.24 15.28C88.7467 15.4067 89.0633 16.04 89.19 17.18C89.57 23.0067 88.3667 28.8333 85.58 34.66C82.92 40.36 79.2467 45.6167 74.56 50.43C69.8733 55.1167 64.68 58.8533 58.98 61.64C53.28 64.4267 47.6433 65.82 42.07 65.82C37.2567 65.82 33.71 64.9333 31.43 63.16C29.2767 61.3867 28.2 58.3467 28.2 54.04C28.2 49.2267 30.1 43.97 33.9 38.27C37.7 32.57 42.8933 27.1867 49.48 22.12C56.1933 16.9267 63.7933 12.7467 72.28 9.58C80.8933 6.28666 90.0133 4.63999 99.64 4.63999C109.393 4.63999 117.12 5.84333 122.82 8.24999C128.647 10.6567 132.827 13.8233 135.36 17.75C138.02 21.6767 139.35 25.9833 139.35 30.67C139.35 35.7367 137.767 40.4867 134.6 44.92C131.56 49.2267 127.633 53.0267 122.82 56.32C118.133 59.6133 113.32 62.21 108.38 64.11C103.567 65.8833 99.45 66.77 96.03 66.77C92.3567 66.77 89.76 66.4533 88.24 65.82C86.8467 65.1867 86.15 64.3633 86.15 63.35C86.15 62.0833 87.4167 61.0067 89.95 60.12C92.61 59.2333 95.7133 58.79 99.26 58.79C101.92 58.79 104.58 59.36 107.24 60.5C109.9 61.64 112.053 63.6667 113.7 66.58C115.473 69.4933 116.36 73.5467 116.36 78.74C116.36 82.54 115.157 86.34 112.75 90.14C110.47 93.8133 107.43 97.17 103.63 100.21C99.83 103.123 95.65 105.467 91.09 107.24C86.53 109.013 81.97 109.9 77.41 109.9ZM220.639 109.9C218.612 109.9 216.775 109.457 215.129 108.57C213.482 107.81 212.659 106.037 212.659 103.25C212.659 100.843 213.925 97.36 216.459 92.8C218.992 88.24 222.412 83.0467 226.719 77.22C231.025 71.2667 235.775 65.06 240.969 58.6C246.289 52.14 251.735 45.87 257.309 39.79C262.882 33.5833 268.202 27.8833 273.269 22.69C278.336 17.37 282.832 12.9367 286.759 9.38999C290.685 5.84332 293.599 3.62666 295.499 2.74C296.132 2.48666 296.575 2.48666 296.829 2.74C297.082 2.86666 296.766 3.12 295.879 3.5C292.079 5.27333 287.456 8.31333 282.009 12.62C276.689 16.8 270.862 21.8033 264.529 27.63C258.322 33.4567 251.925 39.6633 245.339 46.25C238.752 52.8367 232.355 59.4233 226.149 66.01C220.069 72.47 214.369 78.55 209.049 84.25C203.855 89.8233 199.422 94.6367 195.749 98.69C192.075 102.743 189.542 105.53 188.149 107.05C186.502 108.697 185.109 109.33 183.969 108.95C182.829 108.57 182.259 107.177 182.259 104.77C182.259 101.477 183.272 97.36 185.299 92.42C187.325 87.48 190.049 82.0967 193.469 76.27C196.889 70.4433 200.689 64.49 204.869 58.41C209.049 52.33 213.229 46.44 217.409 40.74C221.715 34.9133 225.769 29.6567 229.569 24.97C233.496 20.2833 236.789 16.42 239.449 13.38C242.235 10.2133 244.072 8.25 244.959 7.48999C245.466 7.11 246.289 6.85666 247.429 6.72999C248.569 6.60333 248.632 6.85666 247.619 7.48999C245.085 8.75666 241.602 11.5433 237.169 15.85C232.735 20.1567 227.669 25.4133 221.969 31.62C216.269 37.7 210.125 44.2867 203.539 51.38C197.079 58.4733 190.365 65.44 183.399 72.28C176.432 79.12 169.529 85.39 162.689 91.09C155.975 96.6633 149.515 101.16 143.309 104.58C137.102 108 131.465 109.71 126.399 109.71C121.332 109.71 117.785 108.823 115.759 107.05C113.732 105.15 112.719 103.25 112.719 101.35C112.719 98.8167 113.415 96.98 114.809 95.84C116.202 94.5733 117.532 93.94 118.799 93.94C121.712 93.94 123.169 94.9533 123.169 96.98C123.169 98.5 122.662 99.5767 121.649 100.21C120.635 100.717 119.812 100.97 119.179 100.97C118.039 100.97 117.152 100.843 116.519 100.59C115.885 100.21 115.569 100.02 115.569 100.02C115.569 100.273 115.695 101.033 115.949 102.3C116.075 103.567 116.899 104.833 118.419 106.1C119.812 107.24 122.345 107.81 126.019 107.81C131.212 107.81 136.975 105.973 143.309 102.3C149.769 98.5 156.545 93.56 163.639 87.48C170.859 81.4 178.079 74.6867 185.299 67.34C192.645 59.8667 199.739 52.3933 206.579 44.92C213.419 37.4467 219.815 30.5433 225.769 24.21C231.722 17.8767 236.916 12.6833 241.349 8.63C245.782 4.44999 249.139 2.10666 251.419 1.6C253.192 1.22 254.079 1.22 254.079 1.6C254.079 1.97999 253.762 2.48666 253.129 3.11999C251.482 4.38666 249.202 6.91999 246.289 10.72C243.375 14.3933 240.082 18.9533 236.409 24.4C232.736 29.72 228.809 35.5467 224.629 41.88C220.575 48.2133 216.522 54.61 212.469 61.07C208.415 67.53 204.615 73.7367 201.069 79.69C197.649 85.5167 194.672 90.71 192.139 95.27C189.605 99.83 187.832 103.313 186.819 105.72C186.692 105.973 186.185 106.353 185.299 106.86C184.412 107.367 184.032 107.557 184.159 107.43C184.285 107.303 185.679 105.72 188.339 102.68C190.999 99.64 194.545 95.65 198.979 90.71C203.539 85.6433 208.732 80.07 214.559 73.99C220.385 67.7833 226.529 61.3867 232.989 54.8C239.449 48.2133 245.845 41.8167 252.179 35.61C258.639 29.2767 264.782 23.64 270.609 18.7C276.436 13.6333 281.566 9.51666 285.999 6.35C290.559 3.18333 294.106 1.47333 296.639 1.21999C298.032 0.966663 298.666 1.15666 298.539 1.79C298.539 2.29666 298.286 2.67666 297.779 2.92999C294.992 4.57666 291.509 7.61666 287.329 12.05C283.149 16.3567 278.589 21.4867 273.649 27.44C268.709 33.3933 263.642 39.7267 258.449 46.44C253.255 53.1533 248.252 59.8033 243.439 66.39C238.752 72.9767 234.509 79.0567 230.709 84.63C227.035 90.0767 224.059 94.6367 221.779 98.31C219.625 101.857 218.549 104.01 218.549 104.77C218.549 105.657 218.992 106.417 219.879 107.05C220.892 107.683 222.032 108 223.299 108C226.212 108 229.062 107.303 231.849 105.91C234.762 104.517 237.232 103.123 239.259 101.73C241.286 100.21 242.362 99.3867 242.489 99.26C243.122 98.3733 243.756 98.4367 244.389 99.45C245.022 100.463 244.642 101.287 243.249 101.92C243.249 101.92 242.109 102.617 239.829 104.01C237.675 105.277 234.889 106.607 231.469 108C228.049 109.267 224.439 109.9 220.639 109.9Z" fill="#CD0000"/>
</svg>
