<svg width="68" height="68" viewBox="0 0 68 68" fill="none" xmlns="http://www.w3.org/2000/svg">
<path d="M34 68.0004C24.9826 68.0004 16.3346 64.4183 9.95837 58.0421C3.58213 51.6658 0 43.0178 0 34.0004C0 24.9831 3.58213 16.335 9.95837 9.9588C16.3346 3.58256 24.9826 0.000428274 34 0.000428274C34.3383 -0.00581293 34.6744 0.0562169 34.9882 0.18281C35.3019 0.309403 35.587 0.497961 35.8262 0.737212C36.0655 0.976464 36.254 1.2615 36.3806 1.57527C36.5072 1.88905 36.5692 2.22513 36.563 2.56343C36.5691 2.90164 36.507 3.23761 36.3803 3.55127C36.2537 3.86493 36.0651 4.14985 35.8259 4.38899C35.5866 4.62813 35.3016 4.8166 34.9879 4.94313C34.6742 5.06967 34.3382 5.13167 34 5.12543C28.2893 5.12563 22.707 6.8192 17.9588 9.99199C13.2107 13.1648 9.50999 17.6743 7.32471 22.9503C5.13943 28.2263 4.56771 34.0318 5.68185 39.6327C6.796 45.2336 9.54596 50.3784 13.584 54.4164C17.622 58.4545 22.7668 61.2044 28.3677 62.3186C33.9686 63.4327 39.7741 62.861 45.0501 60.6757C50.3261 58.4904 54.8356 54.7897 58.0084 50.0416C61.1812 45.2934 62.8748 39.7111 62.875 34.0004C62.8683 33.6597 62.9296 33.321 63.0553 33.0042C63.1811 32.6874 63.3688 32.3989 63.6074 32.1555C63.846 31.9121 64.1308 31.7188 64.445 31.5868C64.7592 31.4548 65.0967 31.3868 65.4375 31.3868C65.7783 31.3868 66.1158 31.4548 66.43 31.5868C66.7442 31.7188 67.029 31.9121 67.2676 32.1555C67.5062 32.3989 67.6939 32.6874 67.8197 33.0042C67.9454 33.321 68.0067 33.6597 68 34.0004C67.9765 43.0106 64.3868 51.645 58.0157 58.0161C51.6445 64.3873 43.0101 67.9769 34 68.0004V68.0004Z" fill="#FF7A00"/>
<path d="M31.608 46.2174C31.2515 46.2204 30.8986 46.1456 30.5741 45.9981C30.2495 45.8506 29.9611 45.634 29.729 45.3634L16.829 31.3534C16.603 31.1068 16.428 30.8181 16.3139 30.5037C16.1998 30.1894 16.1489 29.8556 16.1641 29.5215C16.1794 29.1874 16.2604 28.8596 16.4027 28.5569C16.5449 28.2543 16.7455 27.9827 16.993 27.7577C17.2405 27.5327 17.5299 27.3589 17.8447 27.2461C18.1596 27.1333 18.4936 27.0837 18.8276 27.1003C19.1616 27.1169 19.4891 27.1994 19.7912 27.3428C20.0932 27.4863 20.364 27.688 20.588 27.9364L31.693 39.9814L62.447 9.31339C62.9267 8.85899 63.5648 8.60969 64.2255 8.61851C64.8862 8.62733 65.5174 8.89357 65.9848 9.36061C66.4522 9.82764 66.719 10.4586 66.7284 11.1193C66.7377 11.78 66.489 12.4183 66.035 12.8984L33.402 45.4484C33.1765 45.6988 32.8992 45.8973 32.5895 46.0301C32.2797 46.1629 31.9448 46.2268 31.608 46.2174V46.2174Z" fill="#00A3FF"/>
</svg>
