<?xml version="1.0" standalone="no"?>
<!DOCTYPE svg PUBLIC "-//W3C//DTD SVG 20010904//EN"
 "http://www.w3.org/TR/2001/REC-SVG-20010904/DTD/svg10.dtd">
<svg version="1.0" xmlns="http://www.w3.org/2000/svg"
 width="2392.000000pt" height="2392.000000pt" viewBox="0 0 2392.000000 2392.000000"
 preserveAspectRatio="xMidYMid meet">
<metadata>
Created by potrace 1.14, written by Peter Selinger 2001-2017
</metadata>
<g transform="translate(0.000000,2392.000000) scale(0.100000,-0.100000)"
fill="#000000" stroke="none">
<path d="M23720 16260 c-8 -5 -17 -7 -21 -5 -9 6 -161 -34 -176 -47 -7 -6 -13
-8 -13 -4 0 6 -50 -15 -155 -65 -27 -13 -87 -45 -133 -71 -46 -26 -85 -48 -87
-48 -8 0 -100 -65 -107 -75 -4 -5 -8 -6 -8 -2 0 5 -18 -5 -39 -22 -21 -17 -43
-31 -48 -31 -5 0 -20 -11 -33 -25 -13 -14 -29 -25 -35 -25 -7 0 -20 -9 -30
-20 -10 -11 -24 -20 -31 -20 -7 0 -14 -4 -16 -8 -1 -5 -39 -35 -83 -67 -44
-32 -82 -61 -85 -64 -3 -4 -23 -19 -45 -36 -22 -16 -127 -99 -234 -185 -107
-85 -208 -166 -225 -180 -33 -26 -204 -169 -222 -185 -6 -5 -32 -28 -59 -50
-26 -22 -55 -47 -64 -55 -9 -9 -45 -40 -81 -70 -36 -29 -69 -59 -75 -64 -5 -6
-37 -33 -70 -61 -33 -27 -65 -54 -71 -60 -6 -5 -35 -30 -64 -55 -29 -25 -67
-58 -85 -75 -18 -16 -63 -57 -101 -90 -37 -33 -78 -69 -90 -80 -12 -11 -59
-54 -105 -95 -45 -41 -102 -93 -125 -115 -24 -22 -87 -80 -140 -130 -125 -116
-127 -118 -349 -330 -249 -237 -1706 -1694 -2050 -2049 -148 -153 -304 -314
-345 -356 -41 -43 -149 -155 -240 -251 -91 -95 -181 -189 -200 -209 -30 -31
-202 -213 -363 -384 -27 -28 -115 -120 -195 -205 -185 -194 -226 -237 -492
-521 -19 -21 -80 -86 -135 -146 -55 -59 -125 -135 -155 -167 -68 -74 -88 -96
-170 -187 -36 -39 -78 -86 -95 -104 -16 -18 -59 -66 -95 -106 -36 -40 -78 -88
-95 -106 -16 -17 -43 -47 -60 -66 -16 -18 -64 -72 -106 -118 -41 -47 -89 -100
-105 -119 -16 -18 -42 -48 -59 -66 -16 -18 -55 -61 -85 -96 -30 -35 -69 -80
-87 -99 -17 -19 -47 -53 -67 -75 -19 -22 -58 -65 -85 -95 -28 -30 -51 -58 -51
-62 0 -5 -4 -8 -10 -8 -10 0 19 70 33 81 5 3 9 12 11 20 3 17 20 50 136 264
15 28 49 91 75 140 27 50 52 92 57 93 4 2 8 12 8 22 0 10 5 22 11 25 5 4 14
17 20 28 12 29 32 60 42 68 5 3 8 8 7 10 -2 5 17 48 33 74 22 36 75 129 89
155 14 26 165 290 205 358 12 20 29 51 38 67 8 17 23 44 34 60 54 88 251 429
251 437 0 4 4 8 8 8 5 0 19 21 33 46 13 25 29 53 34 62 6 10 30 51 55 92 24
41 47 77 51 80 3 3 8 10 10 16 2 6 51 88 109 182 58 95 111 182 118 195 16 27
33 56 140 228 46 74 88 143 95 154 7 10 17 25 24 32 6 7 15 22 18 33 3 11 11
20 16 20 6 0 8 4 4 9 -3 5 1 15 8 23 14 13 81 119 139 218 17 30 34 57 37 60
12 10 111 172 111 181 0 5 4 9 9 9 5 0 13 10 17 22 3 12 11 26 16 32 16 20
109 168 120 192 6 13 15 24 20 24 4 0 8 6 8 13 0 6 11 25 25 41 14 16 25 33
25 38 0 5 18 36 40 68 22 32 40 63 40 69 0 5 3 11 8 13 7 3 82 114 82 122 0 9
64 101 72 104 4 2 8 11 8 19 0 9 10 24 22 34 11 11 18 19 14 19 -4 0 3 15 16
32 13 18 28 41 33 50 24 42 141 226 162 254 13 17 23 34 23 38 0 4 9 16 20 28
11 12 20 28 20 35 0 7 5 13 10 13 6 0 10 6 10 13 0 8 11 27 25 43 14 16 25 34
25 41 0 6 3 13 8 15 7 3 117 166 139 206 7 12 19 29 28 38 8 8 15 19 15 24 0
5 6 15 13 22 6 7 73 105 147 218 74 113 142 213 151 223 9 9 22 30 30 45 8 15
19 33 26 39 6 7 21 29 34 50 13 21 25 40 29 43 6 6 139 201 155 228 6 9 12 19
15 22 3 3 34 48 70 100 35 52 66 97 69 100 3 3 12 17 20 33 8 15 18 27 23 27
4 0 8 5 8 10 0 12 41 73 53 78 4 2 7 8 7 13 0 6 5 15 11 22 5 7 68 95 140 197
71 102 135 192 142 200 6 8 20 27 29 41 9 14 23 32 30 40 7 8 22 28 32 44 10
17 25 37 33 45 7 8 44 56 80 105 37 50 71 95 75 100 5 6 36 46 71 90 34 44 65
82 69 83 5 2 8 10 8 17 0 7 3 15 8 17 4 2 25 26 47 53 22 28 42 52 45 55 3 3
16 19 29 35 69 90 261 292 359 376 23 20 42 42 42 48 0 6 4 11 9 11 13 0 30
55 21 70 -9 15 -54 17 -125 7 -54 -8 -90 -15 -90 -17 0 -2 -38 -11 -52 -12 -7
-1 -13 -5 -13 -10 0 -4 -7 -8 -15 -8 -14 0 -128 -56 -150 -73 -5 -4 -33 -22
-60 -40 -64 -41 -159 -111 -205 -151 -20 -17 -50 -42 -67 -56 -32 -26 -159
-139 -224 -200 -21 -19 -77 -71 -126 -115 -155 -142 -1093 -1086 -1093 -1101
0 -1 -21 -24 -47 -51 -66 -69 -168 -178 -298 -317 -60 -65 -132 -142 -160
-171 -27 -29 -86 -92 -130 -140 -44 -48 -102 -111 -130 -140 -81 -87 -145
-156 -235 -255 -47 -51 -101 -110 -120 -130 -42 -43 -114 -122 -230 -249 -47
-51 -98 -108 -115 -126 -16 -17 -68 -74 -115 -125 -197 -215 -309 -337 -365
-395 -27 -29 -91 -97 -141 -151 -51 -55 -118 -127 -150 -161 -33 -33 -115
-121 -184 -193 -69 -73 -164 -173 -212 -223 -49 -50 -88 -91 -88 -92 0 -5
-443 -456 -716 -729 -367 -368 -585 -578 -833 -802 -29 -27 -73 -67 -96 -89
-24 -22 -67 -60 -95 -85 -29 -25 -64 -56 -79 -70 -46 -42 -103 -92 -176 -155
-38 -33 -75 -64 -81 -70 -6 -5 -35 -30 -64 -55 -29 -25 -58 -50 -64 -55 -11
-10 -163 -139 -261 -221 -49 -41 -126 -104 -155 -127 -8 -7 -37 -30 -65 -52
-27 -22 -54 -43 -60 -48 -5 -4 -21 -17 -35 -28 -36 -29 -62 -50 -175 -135 -55
-41 -107 -80 -115 -87 -8 -7 -31 -22 -50 -34 -31 -19 -49 -34 -107 -83 -7 -6
-13 -7 -13 -3 0 4 -4 4 -8 -2 -8 -12 -46 -39 -232 -165 -14 -10 -43 -29 -235
-152 -38 -25 -86 -54 -105 -65 -19 -10 -53 -31 -76 -45 -39 -25 -334 -182
-344 -183 -3 -1 -32 -14 -65 -29 -33 -16 -65 -29 -71 -30 -7 -1 -18 -6 -25
-12 -8 -6 -34 -17 -59 -24 -25 -7 -50 -17 -55 -21 -15 -11 -310 -98 -348 -103
-17 -2 -39 -6 -47 -9 -49 -19 -271 -41 -405 -40 -233 1 -404 31 -524 92 -97
50 -223 189 -246 274 -2 4 -3 8 -5 10 -7 8 -21 87 -37 207 l-6 45 34 -26 c50
-38 77 -45 207 -53 109 -7 229 33 288 96 56 59 76 116 76 216 0 65 -12 102
-49 151 -21 27 -86 67 -120 73 -5 1 -33 7 -63 13 -74 15 -164 11 -225 -10
-102 -36 -244 -147 -300 -235 -57 -90 -96 -312 -72 -409 5 -18 10 -42 12 -53
2 -10 16 -44 29 -75 61 -132 197 -275 324 -340 45 -24 82 -40 82 -37 0 4 6 2
13 -4 6 -5 28 -13 47 -18 50 -11 50 -11 53 -14 5 -4 136 -30 182 -36 83 -11
194 -17 325 -17 190 -1 280 8 440 42 126 28 121 26 235 61 55 17 105 32 110
34 6 1 21 7 35 13 14 6 57 23 95 38 228 90 393 176 773 400 9 6 36 23 59 38
24 15 47 27 53 27 5 0 10 4 10 9 0 5 20 20 45 32 25 12 45 26 45 31 0 4 4 8
10 8 8 0 97 57 110 70 3 3 28 20 57 38 28 18 57 40 63 47 7 8 16 12 21 9 5 -3
9 -1 9 4 0 7 58 50 118 87 9 6 24 18 33 28 9 9 21 17 28 17 6 0 11 5 11 10 0
6 7 10 15 10 8 0 15 3 15 8 0 4 16 18 36 31 19 13 70 52 113 85 43 34 93 72
111 86 18 14 38 30 44 35 6 6 31 26 56 45 25 19 50 39 56 45 6 5 30 26 54 45
56 45 173 143 180 150 3 3 30 25 60 50 30 25 62 52 70 60 9 8 38 34 65 57 58
48 70 58 160 138 37 33 73 65 79 70 54 48 184 163 197 175 9 8 56 51 105 96
49 45 103 93 119 108 435 397 1112 1066 1635 1615 209 220 224 236 345 366 61
65 128 137 150 160 22 24 66 72 97 106 31 35 86 96 123 134 37 39 101 108 143
154 43 46 104 113 137 147 33 35 92 97 130 139 39 42 94 102 123 133 30 32 93
99 140 151 48 51 107 115 132 140 39 41 183 195 290 311 54 58 262 281 305
325 22 24 72 78 111 121 73 81 86 94 297 318 268 284 752 776 832 846 15 14
-29 -42 -100 -125 -70 -82 -149 -175 -174 -204 -25 -30 -62 -73 -81 -95 -19
-22 -39 -46 -45 -54 -5 -7 -21 -25 -35 -40 -14 -15 -37 -43 -52 -62 -15 -19
-38 -48 -52 -63 -24 -28 -57 -68 -124 -151 -17 -23 -38 -48 -45 -56 -6 -8 -42
-53 -79 -100 -37 -47 -77 -96 -88 -108 -11 -13 -20 -27 -20 -32 0 -5 -4 -10
-8 -12 -5 -1 -46 -52 -92 -113 -46 -60 -87 -112 -90 -115 -3 -3 -18 -23 -35
-45 -16 -22 -34 -45 -40 -52 -14 -17 -26 -32 -59 -78 -17 -22 -33 -42 -36 -45
-3 -3 -17 -21 -30 -40 -14 -19 -30 -42 -37 -50 -6 -8 -40 -53 -75 -100 -34
-47 -66 -89 -70 -95 -13 -16 -62 -81 -80 -107 -9 -12 -24 -32 -33 -43 -13 -16
-231 -318 -293 -404 -9 -13 -23 -30 -29 -37 -7 -7 -13 -15 -13 -18 0 -4 -28
-46 -63 -94 -65 -89 -314 -441 -402 -567 -113 -164 -144 -209 -258 -375 -65
-96 -166 -247 -224 -335 -58 -88 -119 -179 -134 -203 -16 -24 -29 -45 -29 -48
0 -3 -6 -12 -12 -19 -7 -8 -35 -50 -63 -96 -27 -45 -64 -102 -81 -128 -17 -25
-92 -149 -168 -276 -76 -126 -146 -241 -154 -255 -9 -14 -15 -28 -14 -32 1 -5
-2 -8 -8 -8 -5 0 -10 -4 -10 -8 0 -5 -31 -62 -68 -128 -83 -144 -145 -260
-224 -413 -33 -63 -62 -120 -66 -126 -4 -5 -7 -12 -8 -15 0 -3 -27 -59 -58
-125 -84 -175 -115 -244 -184 -410 -48 -117 -119 -308 -122 -330 0 -3 -8 -24
-16 -47 -18 -51 -63 -221 -69 -261 -2 -15 -6 -31 -9 -35 -2 -4 -7 -32 -11 -62
-4 -30 -10 -73 -14 -95 -6 -34 -8 -320 -2 -320 2 0 4 -11 7 -25 2 -14 16 -49
32 -79 31 -62 83 -96 142 -94 31 2 75 9 75 13 0 1 9 3 20 5 11 2 21 9 23 14 2
6 9 11 16 11 7 0 28 12 47 27 37 29 229 221 229 229 0 3 10 15 23 28 12 12 58
62 102 111 44 48 91 100 105 115 27 30 144 157 230 252 30 34 69 75 85 93 17
18 62 68 100 110 39 43 89 99 112 124 24 25 43 50 43 54 0 5 5 5 10 2 6 -3 10
-2 10 4 0 6 28 40 63 77 92 99 124 133 212 230 44 48 103 110 130 139 28 29
86 92 130 140 44 48 96 104 115 125 207 222 263 282 313 334 31 33 57 61 57
63 0 2 19 23 43 47 43 44 109 114 302 321 61 64 130 138 154 164 23 25 86 92
140 149 53 57 130 139 171 182 41 43 118 125 171 182 54 57 119 126 145 154
27 28 112 117 189 199 370 391 734 763 1296 1324 533 533 678 676 1028 1011
299 287 321 308 321 306 0 -1 40 37 89 84 48 47 124 117 167 156 43 40 95 87
115 105 20 19 69 63 109 99 40 36 84 74 96 85 12 11 51 45 85 75 34 30 67 60
73 65 6 6 58 51 116 100 58 50 110 95 116 100 37 33 328 275 409 340 28 22 55
44 61 50 12 10 46 38 148 117 34 26 72 56 86 67 98 76 140 108 255 191 72 51
137 98 145 103 25 17 -26 -30 -240 -223 -119 -107 -819 -806 -1046 -1045 -95
-99 -200 -210 -235 -247 -62 -65 -240 -253 -334 -353 -26 -27 -80 -86 -120
-130 -40 -45 -91 -99 -112 -121 -21 -22 -72 -78 -113 -124 -41 -47 -94 -104
-117 -128 -24 -24 -43 -45 -43 -48 0 -2 -8 -12 -17 -22 -26 -26 -193 -208
-244 -266 -24 -27 -55 -61 -69 -76 -14 -15 -54 -60 -90 -101 -36 -40 -74 -83
-85 -95 -11 -12 -29 -33 -40 -45 -12 -13 -84 -96 -160 -184 -77 -88 -151 -173
-165 -189 -14 -16 -34 -39 -45 -51 -11 -13 -38 -45 -60 -71 -22 -27 -52 -61
-67 -76 -14 -16 -24 -28 -22 -28 3 0 -11 -17 -30 -37 -19 -21 -45 -51 -57 -68
-13 -16 -26 -32 -30 -35 -3 -3 -28 -32 -54 -65 -27 -33 -51 -62 -54 -65 -4 -3
-38 -43 -76 -90 -38 -47 -74 -90 -80 -97 -5 -7 -15 -18 -20 -25 -47 -60 -202
-255 -210 -265 -5 -6 -21 -26 -35 -44 -14 -18 -45 -58 -70 -89 -25 -31 -54
-69 -65 -85 -11 -15 -31 -42 -45 -59 -14 -17 -39 -49 -55 -71 -29 -39 -41 -55
-77 -97 -10 -12 -18 -24 -18 -27 0 -3 -10 -17 -22 -31 -13 -14 -45 -56 -73
-93 -27 -37 -62 -82 -77 -100 -15 -18 -28 -35 -28 -38 0 -3 -10 -17 -21 -30
-12 -13 -29 -35 -38 -49 -14 -22 -188 -259 -209 -285 -20 -26 -188 -258 -197
-273 -5 -9 -12 -19 -16 -22 -3 -3 -21 -27 -40 -55 -18 -27 -38 -54 -42 -60
-16 -21 -177 -256 -177 -260 0 -1 -29 -46 -65 -98 -36 -52 -65 -98 -65 -102 0
-3 -5 -11 -10 -18 -20 -23 -120 -188 -120 -198 0 -5 -5 -9 -11 -9 -5 0 -8 -4
-5 -9 3 -5 -1 -14 -9 -21 -8 -7 -21 -24 -28 -39 -12 -24 -50 -92 -100 -181
-28 -50 -121 -236 -146 -295 -13 -27 -28 -63 -36 -80 -18 -41 -74 -214 -79
-245 -3 -14 -5 -25 -6 -25 -5 0 -11 -68 -14 -149 -6 -157 34 -293 109 -370 42
-43 146 -96 245 -125 41 -12 87 -26 102 -31 15 -4 121 -7 235 -5 194 3 229 5
308 19 17 3 53 8 80 12 28 3 54 8 58 11 5 3 18 6 30 7 95 12 354 99 525 177
35 16 66 29 68 29 19 0 365 182 484 255 80 48 172 103 204 122 62 35 105 77
107 103 1 8 2 22 3 30 4 41 -66 130 -103 130 -11 0 -26 -6 -33 -12 -31 -30
-96 -85 -127 -108 -19 -14 -77 -58 -130 -97 -53 -40 -102 -73 -108 -73 -7 0
-13 -4 -13 -10 0 -5 -7 -10 -15 -10 -8 0 -15 -4 -15 -10 0 -5 -7 -10 -15 -10
-8 0 -15 -4 -15 -10 0 -5 -4 -10 -9 -10 -5 0 -62 -31 -128 -68 -396 -227 -687
-327 -968 -333 -21 -1 -131 11 -160 16 -88 17 -197 92 -232 158 -19 38 -19
112 0 157 8 19 15 37 15 40 0 10 121 233 181 332 9 15 36 61 61 102 25 42 48
76 53 76 4 0 7 5 7 11 0 5 20 40 43 77 113 173 155 240 172 270 11 17 22 32
26 32 4 0 9 8 13 18 6 17 27 53 37 62 3 3 16 23 29 45 13 22 26 42 30 45 3 3
43 64 90 135 47 72 88 132 91 135 3 3 12 16 19 29 7 14 17 30 21 35 5 6 107
153 226 326 333 485 346 505 355 508 4 2 8 8 8 14 0 6 14 27 30 48 17 21 30
43 30 49 0 6 3 11 8 11 4 0 18 18 32 40 14 22 27 40 30 40 3 0 14 16 24 35 11
19 23 35 28 35 4 0 8 5 8 11 0 5 15 30 33 53 17 24 39 54 47 66 8 12 29 41 46
64 16 22 61 86 100 140 155 221 164 234 187 258 9 10 14 18 10 18 -5 0 -3 4 2
8 6 4 44 52 84 107 40 55 81 111 91 125 47 63 646 858 667 885 13 17 27 35 31
40 4 6 48 62 97 126 50 63 101 131 115 149 28 37 72 92 80 100 3 3 38 48 77
100 39 52 81 105 93 118 11 12 18 22 15 22 -3 0 3 8 13 18 30 32 62 72 62 78
0 3 6 11 13 18 6 7 26 30 42 51 17 21 45 56 63 79 18 23 39 48 45 56 146 185
204 258 218 270 9 8 18 20 20 26 4 12 79 103 116 141 12 13 20 23 17 23 -3 0
20 30 51 68 71 83 113 134 123 147 23 30 221 268 260 314 26 30 53 62 60 73 8
10 23 29 35 41 12 12 38 42 57 66 19 24 46 56 60 71 14 15 46 51 72 81 25 30
54 64 65 75 10 12 38 45 63 74 25 29 56 64 70 79 14 15 57 63 95 106 39 44 90
100 115 126 25 26 92 98 150 160 58 63 200 208 315 324 189 189 267 262 375
351 19 16 37 32 38 37 2 4 8 7 12 7 5 0 22 12 37 26 15 15 79 60 140 101 62
41 118 83 124 95 18 33 18 66 0 81 -18 16 -129 21 -151 7z"/>
<path d="M7646 15983 c-2 -3 -46 -7 -98 -9 -95 -5 -183 -11 -183 -14 0 -1 -22
-3 -50 -5 -45 -3 -103 -10 -175 -20 -39 -6 -106 -15 -137 -20 -71 -9 -196 -30
-233 -39 -14 -3 -37 -8 -52 -11 -27 -5 -47 -9 -98 -20 -14 -4 -34 -8 -45 -10
-11 -3 -65 -16 -120 -30 -55 -14 -111 -28 -124 -31 -13 -3 -32 -9 -43 -15 -10
-5 -18 -8 -18 -5 0 6 -246 -71 -273 -85 -12 -7 -23 -11 -25 -10 -2 2 -15 -2
-30 -7 -230 -86 -301 -112 -310 -112 -7 0 -12 -4 -12 -8 0 -5 -6 -9 -13 -9
-31 0 -519 -224 -687 -315 -158 -86 -240 -132 -325 -183 -28 -16 -58 -34 -68
-40 -34 -19 -232 -148 -237 -154 -3 -3 -32 -24 -65 -46 -96 -64 -363 -265
-435 -328 -8 -7 -42 -35 -75 -63 -33 -27 -65 -53 -71 -59 -259 -229 -530 -505
-674 -689 -8 -10 -27 -33 -41 -50 -14 -17 -49 -62 -77 -101 -28 -38 -56 -75
-61 -82 -29 -34 -251 -385 -251 -397 0 -2 -16 -32 -35 -65 -19 -34 -34 -64
-34 -66 0 -3 -12 -31 -27 -63 -70 -152 -154 -416 -169 -534 -20 -164 -24 -302
-10 -423 4 -38 8 -80 9 -92 1 -12 5 -25 9 -29 4 -4 7 -21 7 -39 0 -17 5 -36
12 -43 7 -7 9 -12 5 -12 -7 0 18 -69 53 -146 21 -46 78 -124 119 -165 26 -25
145 -109 155 -109 3 0 29 -11 58 -24 72 -32 176 -64 235 -71 12 -2 36 -6 55
-10 122 -27 407 -37 598 -20 52 4 107 8 123 9 15 0 27 3 27 6 0 3 10 5 23 6
27 0 103 11 137 19 14 3 35 8 48 11 12 2 32 6 45 9 12 2 46 11 75 19 29 8 53
14 55 14 1 -1 49 14 107 32 161 50 320 114 490 197 85 42 158 75 163 75 4 -1
7 2 7 7 0 5 12 14 28 20 15 7 50 25 77 41 28 17 57 33 65 37 8 4 29 17 46 30
17 13 36 23 42 23 7 0 12 5 12 10 0 6 4 10 9 10 13 0 245 160 249 171 2 5 8 9
14 9 5 0 35 20 66 45 101 81 124 100 146 118 187 159 324 290 453 433 106 117
123 138 222 264 28 36 60 76 71 88 11 13 20 27 20 32 0 5 3 10 8 12 4 2 27 32
52 68 24 36 48 67 52 68 4 2 8 7 8 12 0 7 112 191 137 226 19 25 215 402 212
406 -1 2 9 26 21 53 41 91 48 109 70 170 25 68 28 78 27 85 0 3 5 15 12 28 7
13 14 31 16 41 2 10 12 49 24 87 20 68 38 145 47 194 2 14 7 36 9 50 11 56 15
74 20 119 4 25 8 57 10 71 3 22 18 290 17 315 -6 186 -24 257 -73 284 -24 13
-28 13 -42 0 -16 -17 -50 -79 -43 -79 3 0 1 -11 -4 -25 -5 -13 -12 -50 -15
-82 -3 -32 -8 -69 -11 -83 -6 -32 -13 -83 -20 -140 -3 -25 -10 -53 -16 -63 -5
-10 -7 -21 -5 -24 3 -3 -1 -22 -8 -44 -8 -21 -12 -39 -10 -39 2 0 -8 -39 -21
-87 -14 -49 -29 -101 -33 -118 -11 -42 -57 -173 -74 -215 -9 -19 -16 -39 -17
-45 -1 -5 -8 -25 -16 -44 -8 -18 -14 -35 -14 -37 0 -2 -27 -61 -61 -131 -33
-71 -65 -137 -70 -148 -19 -42 -92 -171 -110 -194 -11 -13 -19 -28 -19 -32 0
-12 -133 -223 -142 -227 -5 -2 -8 -10 -8 -18 0 -8 -4 -14 -10 -14 -5 0 -10 -4
-10 -10 0 -11 -71 -113 -82 -118 -5 -2 -8 -8 -8 -14 0 -5 -6 -15 -12 -22 -7
-8 -20 -24 -28 -36 -17 -25 -90 -119 -105 -136 -5 -6 -21 -26 -35 -44 -14 -18
-30 -38 -35 -44 -6 -6 -23 -27 -38 -46 -132 -163 -419 -448 -632 -626 -38 -33
-76 -65 -84 -72 -34 -33 -320 -242 -330 -242 -6 0 -11 -4 -11 -9 0 -4 -28 -25
-62 -46 -35 -21 -65 -41 -68 -44 -3 -3 -14 -11 -25 -18 -11 -6 -65 -39 -120
-71 -55 -33 -138 -79 -185 -103 -47 -24 -87 -47 -90 -50 -3 -3 -61 -29 -130
-58 -69 -29 -134 -56 -145 -61 -11 -4 -33 -13 -50 -18 -16 -6 -39 -13 -50 -18
-22 -8 -20 -7 -95 -29 -30 -9 -63 -18 -73 -20 -10 -2 -27 -7 -37 -10 -18 -6
-44 -12 -87 -21 -13 -2 -35 -6 -50 -10 -121 -24 -330 -33 -483 -21 -94 8 -119
12 -202 33 -13 3 -34 7 -48 10 -14 3 -63 24 -109 46 -89 44 -156 101 -208 178
-30 45 -95 166 -99 185 -1 6 -9 32 -18 59 -30 89 -38 210 -22 341 8 70 52 233
68 253 6 6 8 12 5 12 -8 0 48 131 98 230 104 209 273 472 437 685 38 48 160
198 180 220 10 11 27 31 39 45 195 234 579 599 894 850 44 35 85 68 90 74 6 6
18 16 26 21 23 14 211 157 227 173 8 6 23 17 35 23 11 7 26 16 31 21 28 24
220 155 315 215 58 36 117 73 131 83 14 9 57 34 95 55 39 21 75 42 82 47 15
12 96 55 193 104 41 21 77 41 78 46 2 4 8 8 13 8 5 0 36 13 68 29 33 16 62 26
65 23 4 -3 6 0 6 6 0 7 4 12 9 12 5 0 49 19 98 42 48 23 97 43 107 45 11 2 29
11 39 21 11 9 21 15 24 13 4 -3 73 23 168 64 78 34 377 136 386 132 3 -1 12 3
20 9 8 6 28 15 44 19 17 5 35 9 40 11 6 2 19 5 30 8 11 3 62 17 113 30 102 28
297 72 352 80 19 3 58 10 85 15 28 6 69 13 93 16 23 3 59 7 80 10 20 3 57 8
82 10 25 2 45 4 45 6 0 1 18 3 40 4 22 2 87 6 145 11 229 17 757 6 995 -21 28
-3 73 -8 100 -10 28 -3 57 -7 65 -10 8 -2 35 -6 60 -9 57 -8 100 -15 123 -22
10 -3 32 -7 49 -9 53 -7 213 -47 223 -56 5 -5 21 -9 35 -9 14 0 30 -4 36 -8 5
-5 29 -14 53 -21 25 -7 56 -18 70 -24 14 -6 28 -11 31 -12 3 -1 16 -6 30 -12
14 -6 30 -12 35 -14 55 -17 368 -193 435 -245 100 -78 200 -168 200 -182 0 -4
-19 -18 -42 -30 -24 -11 -54 -28 -68 -36 -14 -8 -106 -63 -205 -122 -99 -59
-206 -124 -237 -146 -31 -21 -61 -38 -67 -38 -5 0 -11 -4 -13 -8 -1 -5 -38
-32 -81 -60 -42 -28 -120 -82 -173 -119 -53 -37 -108 -76 -122 -85 -15 -9 -38
-26 -52 -38 -14 -11 -61 -48 -105 -81 -126 -94 -137 -103 -151 -116 -7 -7 -17
-13 -22 -13 -6 0 -12 -4 -14 -9 -1 -5 -31 -32 -66 -59 -98 -78 -153 -125 -185
-154 -16 -15 -46 -41 -67 -58 -47 -38 -70 -58 -131 -113 -26 -23 -79 -71 -119
-107 -40 -36 -83 -74 -95 -85 -341 -305 -583 -542 -1483 -1455 -204 -206 -493
-499 -644 -651 -297 -299 -483 -494 -648 -679 -36 -40 -76 -85 -90 -100 -57
-62 -206 -232 -280 -319 -25 -29 -56 -66 -70 -81 -24 -26 -44 -50 -114 -131
-90 -104 -144 -165 -167 -191 -15 -16 -51 -56 -80 -90 -30 -33 -65 -73 -79
-88 -209 -228 -244 -266 -369 -400 -144 -156 -668 -680 -761 -762 -78 -68
-132 -114 -214 -183 -27 -22 -54 -45 -60 -50 -27 -26 -319 -247 -396 -300 -47
-33 -86 -63 -88 -67 -2 -4 -8 -8 -14 -8 -6 0 -33 -16 -59 -35 -27 -19 -51 -35
-54 -35 -2 0 -33 -18 -69 -39 -54 -33 -254 -134 -321 -161 -26 -11 -59 -23
-65 -24 -3 -1 -15 -7 -27 -14 -13 -7 -23 -10 -23 -6 0 3 -7 0 -17 -7 -9 -8
-18 -13 -20 -11 -2 2 -33 -6 -68 -17 -70 -23 -166 -46 -229 -55 -21 -4 -41 -8
-45 -10 -11 -7 -264 -29 -306 -27 -143 6 -214 11 -231 15 -12 2 -37 7 -55 10
-203 34 -367 115 -500 246 -58 58 -159 190 -144 190 3 0 -1 13 -10 30 -14 28
-29 87 -39 158 -4 28 -2 33 12 27 9 -4 24 -8 32 -10 8 -2 36 -8 61 -14 50 -11
164 -15 214 -7 57 9 160 48 197 74 39 28 95 122 84 141 -4 5 -2 12 4 16 6 4 8
9 6 13 -2 4 -5 27 -7 52 -1 25 -7 51 -12 58 -5 6 -6 12 -2 12 9 0 -40 66 -75
100 -79 78 -299 100 -443 43 -83 -33 -227 -140 -227 -170 0 -7 -3 -13 -7 -13
-11 0 -40 -66 -54 -119 -11 -44 -14 -205 -4 -221 3 -4 7 -25 11 -46 25 -156
220 -419 399 -536 70 -46 175 -98 230 -113 17 -5 32 -9 35 -10 39 -12 99 -28
115 -31 11 -2 31 -6 45 -10 14 -3 39 -7 55 -9 17 -3 53 -8 80 -11 62 -9 595
-13 595 -5 0 3 19 6 43 7 49 1 149 11 192 20 17 3 44 7 60 9 17 1 41 5 55 9
14 3 43 8 65 12 22 3 45 7 50 8 6 1 37 8 70 15 33 7 101 24 150 38 50 14 95
26 100 27 12 2 84 25 105 33 8 3 24 8 34 10 11 2 25 8 33 14 7 6 13 9 13 6 0
-4 20 2 45 13 25 11 46 19 48 19 7 -1 149 58 248 105 42 20 82 36 88 36 6 0
11 5 11 10 0 6 3 9 8 8 10 -2 65 24 73 35 3 5 9 9 12 8 11 0 69 28 162 79 50
28 104 57 120 65 17 9 59 33 94 55 34 22 65 40 67 40 2 0 27 16 54 35 27 19
52 35 54 35 6 0 200 130 206 138 6 8 39 29 60 39 8 4 17 9 20 13 3 3 37 30 75
58 39 28 75 55 80 59 6 5 30 24 55 43 66 51 234 184 240 190 3 3 30 25 60 50
56 46 90 75 141 120 15 14 61 54 101 90 83 74 501 490 598 596 36 39 94 104
130 144 102 115 103 117 135 152 17 19 46 54 65 78 19 24 46 56 60 70 14 15
47 55 74 91 27 35 54 69 60 74 6 6 37 44 67 85 46 61 171 223 313 405 13 17
74 95 137 175 62 80 147 188 188 241 42 53 87 111 101 129 25 32 49 62 71 89
7 7 27 32 44 56 18 23 42 53 53 66 11 13 60 74 107 134 104 130 99 125 306
380 89 110 185 228 213 261 28 34 80 97 116 140 35 44 67 81 70 84 3 3 25 30
50 60 51 62 84 101 118 138 12 14 41 48 65 76 23 28 53 62 67 77 14 15 41 46
60 69 19 23 51 59 70 80 19 21 52 57 74 81 38 44 174 192 274 297 266 282 750
748 887 853 17 13 32 26 35 30 6 8 69 61 124 104 22 17 44 35 50 40 6 6 43 35
81 64 39 29 82 62 96 74 69 57 510 357 525 357 3 0 19 9 34 20 29 21 60 18 60
-5 0 -7 4 -15 8 -17 7 -2 114 -211 118 -228 0 -3 5 -16 11 -30 22 -53 53 -146
57 -170 3 -14 5 -25 6 -25 3 0 8 -26 25 -120 24 -128 24 -324 0 -515 -8 -63
-22 -143 -25 -147 -3 -4 -5 -10 -15 -63 -5 -25 -9 -47 -10 -50 -6 -26 -69
-217 -74 -225 -4 -5 -16 -32 -26 -60 -18 -51 -113 -246 -124 -255 -3 -3 -16
-25 -29 -50 -12 -25 -28 -54 -35 -65 -11 -19 -67 -108 -94 -150 -7 -11 -16
-28 -19 -37 -3 -10 -10 -18 -13 -18 -4 0 -22 -23 -40 -50 -27 -41 -164 -219
-216 -280 -62 -72 -439 -440 -451 -440 -2 0 -12 -8 -22 -17 -42 -40 -92 -83
-97 -83 -3 0 -16 -9 -28 -21 -12 -11 -42 -35 -67 -52 -25 -17 -47 -34 -50 -37
-3 -3 -54 -39 -115 -78 -60 -40 -114 -76 -120 -80 -5 -4 -30 -19 -55 -32 -25
-14 -47 -28 -50 -31 -3 -3 -20 -11 -37 -18 -18 -8 -33 -17 -33 -22 0 -5 -9 -9
-20 -9 -11 0 -20 -4 -20 -10 0 -15 -33 -12 -58 6 -12 8 -22 12 -22 8 0 -3 -11
1 -25 10 -14 9 -25 14 -25 10 0 -4 -7 -1 -15 6 -8 7 -15 9 -15 5 0 -4 -11 0
-25 9 -14 9 -25 15 -25 12 0 -2 -21 3 -47 11 -160 50 -281 67 -478 67 -120 0
-321 -11 -333 -18 -4 -2 -31 -7 -61 -10 -140 -17 -330 -71 -447 -127 -72 -35
-151 -100 -166 -138 -28 -66 -9 -150 44 -197 38 -34 86 -65 107 -69 11 -2 28
-8 38 -13 16 -9 76 -23 156 -38 56 -10 96 -13 227 -19 74 -4 145 -8 157 -10
13 -2 25 1 28 6 4 5 13 5 24 -1 10 -5 20 -7 23 -5 2 2 46 7 98 10 100 7 136
10 185 20 141 27 200 40 260 57 39 10 81 21 95 24 26 5 210 64 223 71 11 6 62
-110 81 -184 21 -80 29 -158 30 -268 0 -103 -17 -360 -24 -360 -1 0 -4 -18 -6
-40 -5 -44 -12 -80 -14 -80 -1 0 -3 -11 -5 -25 -1 -14 -8 -47 -14 -75 -6 -27
-14 -63 -17 -80 -3 -16 -17 -64 -30 -105 -13 -41 -29 -91 -35 -110 -32 -103
-151 -379 -189 -440 -5 -8 -19 -35 -31 -60 -13 -25 -25 -47 -28 -50 -3 -3 -17
-25 -30 -50 -45 -84 -262 -397 -292 -420 -3 -3 -30 -34 -60 -70 -68 -82 -312
-327 -404 -406 -94 -80 -162 -134 -169 -134 -3 0 -15 -8 -25 -17 -32 -29 -59
-48 -236 -159 -67 -42 -179 -99 -320 -164 -24 -11 -78 -33 -85 -34 -3 -1 -25
-9 -50 -18 -62 -24 -217 -68 -260 -74 -19 -3 -44 -8 -55 -11 -11 -4 -29 -7
-40 -8 -255 -26 -433 -23 -575 10 -14 3 -34 8 -45 10 -72 12 -244 83 -272 111
-7 7 -23 21 -35 31 -42 33 -76 88 -97 156 -17 55 -20 86 -16 170 3 87 9 142
15 142 1 0 3 11 6 25 12 70 89 260 105 260 5 0 9 7 9 15 0 13 58 105 100 159
119 153 380 415 482 484 13 9 25 18 28 22 8 9 152 115 185 136 17 10 39 27 49
36 11 10 26 18 33 18 7 0 13 5 13 10 0 6 7 10 15 10 8 0 15 5 15 10 0 6 5 10
11 10 6 0 23 8 37 19 15 10 54 33 87 51 33 18 76 42 95 53 51 30 149 77 156
76 4 0 10 3 13 8 3 5 40 24 81 42 41 18 93 42 115 52 57 26 189 79 197 79 4 0
19 5 35 12 15 6 30 12 33 13 3 1 14 5 25 9 11 4 31 12 45 17 14 5 39 14 55 20
17 7 37 13 45 14 8 2 35 10 60 20 25 9 54 18 65 20 11 2 63 14 115 28 52 14
115 28 140 33 49 8 59 11 63 13 1 1 25 4 52 6 28 3 73 7 100 9 28 3 88 6 135
7 47 1 97 6 112 11 30 11 43 35 28 53 -5 6 -7 14 -4 17 10 10 -55 49 -88 53
-69 9 -284 3 -348 -10 -14 -3 -45 -8 -70 -11 -25 -3 -97 -17 -160 -31 -63 -14
-122 -27 -130 -28 -8 -1 -22 -5 -30 -8 -8 -3 -66 -22 -128 -42 -110 -35 -286
-101 -385 -144 -26 -11 -48 -20 -50 -20 -7 1 -323 -161 -384 -197 -40 -24 -73
-40 -73 -36 0 4 -4 2 -8 -3 -4 -6 -43 -33 -87 -60 -86 -53 -222 -144 -270
-182 -16 -13 -34 -27 -40 -31 -28 -21 -101 -78 -111 -87 -7 -5 -34 -29 -60
-52 -73 -61 -214 -192 -214 -197 0 -1 -27 -30 -59 -64 -32 -34 -85 -95 -117
-135 -33 -39 -62 -74 -65 -77 -3 -3 -28 -39 -56 -80 -95 -141 -158 -287 -189
-435 -11 -49 -22 -233 -16 -240 3 -3 7 -22 9 -43 11 -117 107 -261 228 -343
56 -37 215 -109 243 -109 10 0 22 -3 26 -7 3 -4 14 -8 22 -9 9 -2 37 -8 63
-14 96 -22 94 -22 231 -35 41 -3 86 -8 100 -11 28 -4 363 -5 425 0 22 2 72 7
110 11 39 4 84 9 100 10 17 2 65 11 108 20 43 9 91 18 105 20 40 6 265 70 362
103 214 74 556 233 728 340 46 29 85 52 87 52 4 0 86 55 185 124 24 17 56 41
70 54 13 12 28 22 32 22 5 0 16 8 26 18 10 9 35 31 56 47 133 107 333 308 461
465 20 25 43 53 52 64 14 18 175 259 200 301 42 69 127 256 157 345 42 124 55
181 73 310 15 107 7 457 -13 579 -17 104 -37 201 -46 231 -25 82 -50 157 -63
185 -7 17 -20 46 -28 65 -16 36 -58 111 -67 120 -3 3 -11 16 -18 30 -16 32
-85 124 -134 180 -38 43 -46 60 -28 60 5 0 37 13 70 29 33 16 60 26 60 23 0
-4 4 -2 8 3 4 6 66 39 137 75 72 36 132 67 135 71 3 3 34 21 70 41 113 61 402
245 408 260 2 4 8 8 13 8 6 0 15 5 22 10 7 6 42 32 78 58 102 72 125 90 249
193 155 130 358 332 455 453 17 21 35 43 40 50 6 6 34 43 63 81 29 39 59 79
68 90 9 11 21 30 27 43 5 12 14 22 19 22 4 0 8 4 8 9 0 9 63 118 80 138 5 7
10 19 10 27 0 8 4 16 9 18 10 4 105 221 110 251 0 4 7 23 15 42 23 54 57 196
71 293 3 17 8 49 11 70 3 20 7 107 9 192 2 139 -2 209 -21 320 -3 19 -8 49
-10 65 -3 17 -10 45 -15 63 -6 18 -12 43 -13 55 -5 41 -68 212 -112 302 -82
171 -199 347 -301 455 -29 30 -53 58 -53 62 0 8 123 67 280 135 58 24 119 50
135 58 48 20 174 67 188 69 6 1 18 5 25 9 6 5 12 5 12 1 0 -3 6 -2 13 3 11 9
98 41 130 47 7 2 19 6 27 9 17 7 90 26 235 62 55 14 111 28 125 32 37 9 40 10
100 22 59 11 90 17 132 26 14 4 36 15 48 25 22 19 22 21 6 45 -9 14 -20 25
-24 26 -4 0 -18 3 -32 6 -31 7 -142 6 -195 -2 -39 -6 -335 -63 -365 -70 -83
-21 -258 -70 -341 -96 -57 -18 -106 -34 -109 -34 -12 -4 -98 -37 -250 -96 -74
-30 -138 -53 -142 -51 -5 1 -8 -2 -8 -7 0 -5 -10 -13 -22 -16 -13 -4 -46 -19
-75 -33 l-52 -27 -33 19 c-18 11 -37 25 -41 33 -4 7 -14 13 -22 13 -7 0 -15 3
-17 8 -3 8 -64 52 -72 52 -3 0 -33 18 -67 40 -34 22 -68 40 -75 40 -7 0 -14 3
-16 8 -3 7 -112 62 -230 116 -106 49 -282 111 -398 141 -36 9 -72 19 -80 22
-8 4 -24 8 -35 10 -11 2 -47 10 -80 18 -53 13 -153 31 -265 49 -19 3 -44 7
-55 10 -66 12 -320 38 -511 52 -98 7 -812 13 -818 7z m439 -4457 c39 -5 75
-12 85 -16 3 -1 10 -3 15 -4 56 -11 172 -65 208 -97 16 -15 10 -19 -100 -61
-65 -25 -161 -57 -213 -71 -131 -36 -165 -44 -220 -52 -19 -3 -51 -8 -70 -11
-64 -10 -380 -11 -443 -1 -113 17 -167 57 -167 125 0 49 99 107 242 143 126
31 164 36 323 45 61 4 111 7 112 8 5 4 190 -2 228 -8z"/>
</g>
</svg>
